<?xml version="1.0" encoding="utf-8"?>
<!-- Generator: Adobe Illustrator 27.2.0, SVG Export Plug-In . SVG Version: 6.00 Build 0)  -->
<svg version="1.1" id="Layer_1" xmlns="http://www.w3.org/2000/svg" xmlns:xlink="http://www.w3.org/1999/xlink" x="0px" y="0px"
	 viewBox="0 0 512 512" style="enable-background:new 0 0 512 512;" xml:space="preserve">
<style type="text/css">
	.st0{fill:#212121;}
</style>
<g>
	<path class="st0" d="M76.8,51.2h76.8v69.33c-7.84-3.43-16.5-5.33-25.6-5.32c-35.35,0-64,28.65-64,64c0,9.1,1.9,17.76,5.32,25.6H0
		V128C0,85.59,34.38,51.2,76.8,51.2z M0,320v-76.8h126.45l-44.02,44.02c-7.5,7.5-7.5,19.65,0,27.15c7.5,7.5,19.65,7.5,27.15,0
		l44.02-44.02V396.8H76.8C34.38,396.8,0,362.42,0,320z M192,396.8h179.2c42.42,0,76.8-34.38,76.8-76.8v-76.8H219.15l44.02,44.02
		c7.5,7.5,7.5,19.65,0,27.15c-7.5,7.5-19.65,7.5-27.15,0L192,270.35V396.8z M276.27,204.8H448V128c0-42.41-34.38-76.8-76.8-76.8H192
		v69.33c7.84-3.42,16.5-5.33,25.6-5.33c35.35,0,64,28.65,64,64C281.6,188.3,279.7,196.96,276.27,204.8z M217.6,204.8H192v-25.6
		c0-14.14,11.46-25.6,25.6-25.6c14.14,0,25.6,11.46,25.6,25.6C243.2,193.34,231.74,204.8,217.6,204.8z M128,204.8h25.6v-25.79
		c-0.1-14.05-11.53-25.41-25.6-25.41c-14.14,0-25.6,11.46-25.6,25.6C102.4,193.34,113.86,204.8,128,204.8z M140.8,460.8
		c-28.43,0-53.25-15.44-66.53-38.4H371.2c56.56,0,102.4-45.84,102.4-102.4V125.47c22.96,13.28,38.4,38.1,38.4,66.53v128
		c0,77.76-63.04,140.8-140.8,140.8H140.8z"/>
</g>
</svg>
